PathFileType	4	(X/Y/Z)	C:\Users\WrightLab\Desktop\Jo\P1_boxCal18.trc
DataRate	CameraRate	NumFrames	NumMarkers	Units	OrigDataRate	OrigDataStartFrame	OrigNumFrames
100.00	100.00	       25	19	mm	100.00	420	       559
Frame#	Time	Headset_Front			Headset_Back			Headset_Left			Headset_Right			Left_Shoulder			Right_Shoulder			Sternum			C7			Left Elbow			Right Elbow			Left Wrist			Right Wrist			Left ASIS			Right ASIS			S2			Left Knee			Right Knee			Left Ankle			Right Ankle			
		X1	Y1	Z1	X2	Y2	Z2	X3	Y3	Z3	X4	Y4	Z4	X5	Y5	Z5	X6	Y6	Z6	X7	Y7	Z7	X8	Y8	Z8	X9	Y9	Z9	X10	Y10	Z10	X11	Y11	Z11	X12	Y12	Z12	X13	Y13	Z13	X14	Y14	Z14	X15	Y15	Z15	X16	Y16	Z16	X17	Y17	Z17	X18	Y18	Z18	X19	Y19	Z19	

420	4.190	-41.46982	1289.16516	1923.99426	-109.41612	1539.56177	1947.58423	-182.11707	1475.16467	2088.95654				-27.73593	1289.63940	2132.90430				-266.20160	1191.93811	2051.59546							-254.14349	1004.15247	1724.45898	128.92259	821.49512	2256.85278	-404.77460	803.59882	1715.08813	-221.09801	912.60901	2162.74487	-331.61246	899.95691	2003.03015				-138.47430	511.87109	2258.42700	-195.90294	447.11002	1855.96777	-142.71939	149.21304	2334.02393	-42.30859	177.26131	1689.99597	
421	4.200	-45.09700	1290.60828	1937.21289	-112.36561	1540.98730	1957.48315	-189.15640	1477.85852	2097.84790				-35.19135	1290.99854	2145.08862				-272.69952	1194.42163	2061.07007							-250.63490	1006.14227	1731.03162	118.89059	822.04547	2271.99878	-395.51108	803.37341	1711.80420	-228.49533	914.86096	2173.00903							-145.76939	514.31989	2267.57764	-206.42714	447.37347	1867.20081	-169.83368	82.06828	2269.96484	-47.64690	183.18620	1698.06250	
422	4.210	-49.33808	1293.07275	1948.75574	-116.26666	1542.75891	1967.77539	-196.59435	1479.90198	2106.80835				-42.90292	1292.91321	2156.63232	-13.67878	906.24750	1929.87463	-278.36569	1195.83972	2067.91138										106.95973	824.29266	2287.69971	-385.69958	802.51691	1711.87561	-235.91972	917.24017	2182.12866							-152.31006	516.84863	2275.73633	-216.64749	448.03601	1876.09961	-144.72977	146.84442	2337.66602	-53.42494	188.59325	1708.17773	
423	4.220	-53.27469	1295.47485	1960.56714	-120.05336	1543.89233	1978.16663	-203.15839	1482.28418	2113.90039				-50.42350	1294.64514	2167.68701	-17.81737	908.51428	1939.85303	-283.35077	1198.32178	2075.12451										94.15611	824.80524	2302.45288	-375.46091	802.74664	1712.46521	-242.16400	919.24054	2190.42358							-157.60817	519.44952	2284.82349	-228.23378	447.73279	1889.02563	-145.23564	145.02525	2338.65356	-59.61728	195.78754	1716.38037	
424	4.230	-57.57225	1298.01001	1971.58655	-123.55798	1545.52625	1987.89587	-210.04819	1484.80310	2122.42017				-58.19992	1297.25342	2177.66064	-21.02928	910.38818	1949.83801	-289.03830	1200.57080	2083.65161										81.99503	827.07489	2318.68774	-365.27469	803.82721	1714.10693	-248.66623	922.31305	2199.79028	-345.35220	907.88727	2026.92737	-259.09476	1299.33716	1791.86804	-161.68567	520.78418	2293.79614	-240.85783	448.55341	1900.45862	-208.33856	129.53679	2336.94287	-65.69167	203.34999	1725.88123	
425	4.240	-61.80881	1300.60278	1981.77991	-127.83686	1547.31311	1997.98279	-216.94943	1486.80347	2130.28491				-66.65206	1299.30249	2188.48218	-24.11124	913.25665	1958.23047	-295.30411	1202.87976	2089.77271										68.65016	829.31268	2333.53149	-354.65576	804.37543	1715.03674	-254.50778	924.69928	2206.33984	-349.26260	910.46655	2033.31299	-262.51923	1302.54309	1793.42810	-165.22598	521.29413	2301.41821	-253.64561	449.70419	1908.88159	-145.47270	144.64319	2338.99512	-71.43830	209.38443	1737.98096	
426	4.250	-66.08817	1303.36316	1992.05225	-131.53752	1549.62915	2006.85681	-223.91702	1489.31726	2137.80518				-74.90489	1302.29004	2199.46851	-27.38764	916.48096	1970.69751	-300.32941	1204.59387	2095.73047										53.76264	833.30573	2349.50610	-344.22958	807.03900	1714.89587	-260.93835	928.09625	2214.23853	-351.87198	913.49731	2039.16064	-265.32443	1305.97290	1794.41492	-168.75215	521.03754	2308.74194	-267.01685	452.17819	1918.38538	-145.49292	144.63794	2338.91650	-78.44903	217.17899	1749.25366	
427	4.260	-70.41985	1305.73352	2002.74866	-135.46115	1550.96899	2015.88989	-231.07117	1491.69934	2145.81641				-83.47940	1304.72107	2208.74414	-30.06346	919.35052	1979.46765	-306.71365	1207.57996	2102.68799	14.97593	997.07074	2255.79150							39.99970	835.78625	2364.27002	-333.90393	807.75055	1718.65881	-266.34534	930.62836	2221.61206	-355.89914	915.92365	2045.00012	-268.60223	1309.22363	1795.60425	-171.50002	519.82562	2314.75024	-279.62274	455.28207	1926.86475	-208.95554	128.76199	2338.65698	-85.95459	225.41805	1761.92847	
428	4.270	-75.00327	1308.22498	2011.86157	-139.76436	1552.70898	2023.80457	-237.66145	1494.17322	2152.44971				-92.13341	1307.27917	2218.77100	-33.19636	921.20569	1987.53516	-312.03424	1209.02173	2107.92065	4.48593	999.26361	2268.40625							24.99721	839.83624	2381.51318	-323.92447	810.75458	1718.98804	-272.25308	933.18115	2226.85791	-359.60547	917.73914	2049.11304	-271.40631	1312.69727	1796.83020	-173.55002	518.66754	2319.09351	-291.89197	457.49554	1940.91711	-145.25885	143.05473	2337.50757	-93.36153	231.19994	1776.76318	
429	4.280	-79.30767	1310.68616	2020.90112	-144.13733	1554.84583	2032.41895	-244.03229	1495.66809	2158.47437				-100.43379	1309.32739	2227.11060	-36.75444	924.27832	1997.37256	-318.01361	1210.46765	2111.47754	-6.03196	1001.75494	2282.62134							11.56342	841.37170	2395.71118	-314.58267	813.05658	1722.97888	-278.03369	935.53638	2232.84839	-362.33954	920.70447	2052.90869				-175.53255	518.45715	2324.27075	-303.02777	460.81198	1950.27759	-145.38280	142.57834	2337.26685	-99.52985	237.17307	1791.38037	
430	4.290	-83.83456	1313.90222	2030.31287	-148.85545	1556.99512	2041.38098	-250.81363	1498.27869	2165.63477				-109.40675	1312.07617	2236.70264	-38.31893	926.87878	2008.36340	-323.29819	1212.05994	2115.53247	-16.91953	1003.56238	2295.62402							-5.39652	844.32141	2409.95972	-305.34052	815.93579	1723.65796	-284.63385	937.58923	2238.01416	-365.90677	921.65887	2055.16479				-175.72195	516.14893	2327.01343	-314.42889	466.94543	1957.49329	-209.34671	128.61720	2339.32837	-104.21442	242.88614	1806.68860	
431	4.300	-88.71746	1316.95642	2038.30005	-152.90967	1559.14966	2048.42407	-257.55179	1500.49438	2171.77368				-117.97563	1313.93762	2244.53784	-41.09393	929.82471	2018.25525	-329.39377	1213.18958	2119.98877	-27.79830	1005.53931	2308.14111							-21.20695	848.06531	2424.77881	-297.01636	819.55084	1723.76685	-290.24036	939.71814	2242.40137	-369.29834	923.87921	2059.82178				-175.53821	514.96466	2329.42529	-325.32709	470.80087	1969.72766	-145.84671	142.32747	2338.63062	-110.40656	245.89577	1822.25830	
432	4.310				-157.68916	1561.31458	2056.35596	-264.12769	1502.31885	2177.90332				-126.54934	1316.40063	2252.44971	-43.78977	932.44324	2026.19434	-334.94861	1214.70215	2123.22778	-39.15978	1007.90381	2321.15894							-37.46558	851.23877	2439.61035	-289.28549	820.87036	1729.99585	-296.30069	941.08441	2246.40942	-372.28192	924.89404	2061.68311				-176.27664	513.98944	2331.88696	-336.61661	476.57895	1977.37659	-145.88637	141.86044	2339.12329	-117.94230	248.81085	1836.23889	
433	4.320				-162.20146	1563.21606	2063.49048	-270.85117	1504.55334	2183.91162				-135.23172	1318.99622	2260.40991	-46.44832	935.44385	2034.17175	-340.54434	1216.18860	2126.34229	-50.28239	1010.28583	2333.51489							-54.07105	854.70825	2453.73584	-282.03375	825.15265	1730.60205	-302.49417	942.52057	2249.62622	-376.18021	925.42871	2063.22778				-177.05574	513.72949	2333.59814	-346.98132	481.74469	1985.04846	-209.44199	128.37370	2339.09839	-126.77920	250.95213	1852.40173	
434	4.330				-166.63887	1565.17468	2070.42529	-277.05634	1506.13403	2188.92407				-143.44701	1320.74512	2267.13525	-49.88089	938.75714	2042.48083	-346.34903	1217.74365	2130.35352	-61.68886	1011.94885	2345.47363							-71.29585	858.17096	2468.26001	-275.34866	828.09363	1734.07373	-308.33633	942.91827	2252.91553	-379.61276	927.00525	2065.86255				-177.99881	513.72211	2335.31372	-357.23843	486.16653	1996.91211	-145.89078	141.86133	2339.10522	-135.51694	251.73409	1870.11230	
435	4.340				-171.37546	1566.85889	2077.92578	-283.66605	1508.16040	2194.53809				-151.63979	1322.43445	2273.16626	-51.90578	942.95056	2052.59033	-352.15717	1219.33704	2133.26831	-73.00984	1014.31708	2358.11157							-88.52667	862.36469	2482.31738	-268.81738	829.30005	1738.50415	-314.55756	943.84161	2256.27881	-382.79456	928.13470	2067.14478				-179.16916	513.60944	2337.15991	-366.70132	489.50101	2003.55640	-145.84216	142.31404	2338.65625	-145.08533	251.87790	1884.02527	
436	4.350	-556.40979	724.51697	731.63129	-175.62785	1568.50598	2084.21753							-159.83383	1324.84827	2279.98218	-55.43672	945.92273	2060.01099	-358.20895	1219.95508	2136.42871	-85.69087	1017.22369	2370.81055							-106.14789	866.24738	2494.81543	-262.83047	833.15826	1740.70947	-320.49292	944.20258	2259.15283	-386.37381	928.60150	2068.87354				-180.87248	513.52191	2339.46069	-376.17422	496.09470	2008.21741	-209.47855	128.30104	2338.99878	-155.44847	248.88927	1902.79724	
437	4.360	-145.40536	142.15933	2337.73560	-180.68005	1570.15344	2091.52026							-167.81633	1326.29004	2286.62012	-58.77918	948.35596	2066.33521	-356.04742	1213.82129	2126.18774	-97.34358	1019.30072	2381.54785							-124.05840	870.68335	2507.67407	-256.64523	835.47797	1742.17371	-326.58734	944.22705	2261.80591	-389.87958	930.20923	2070.40088				-182.37776	513.34991	2340.38037	-384.22064	499.45383	2017.84912	-209.46307	128.32957	2339.04199	-167.49121	244.53391	1920.75208	
438	4.370	-566.77008	737.02551	765.01483	-185.33060	1571.02380	2096.31006							-175.85953	1328.17554	2292.68164	-61.31255	950.43329	2073.37305	-361.49301	1215.26135	2130.50537	-109.25008	1022.00317	2392.61133							-142.36180	874.94373	2520.38989	-251.22578	837.99164	1746.02747	-332.25632	944.56091	2263.85376	-392.90604	931.41486	2073.51318				-184.37157	513.62469	2340.54370	-392.32700	505.98608	2020.96399	-145.49300	142.49770	2337.62573	-177.45201	239.57480	1937.04688	
439	4.380	-571.62122	743.24524	780.43085	-190.32396	1571.93860	2102.93164							-183.59621	1329.77576	2298.10107	-64.88988	952.75049	2079.48413	-367.14233	1216.44348	2133.58447	-120.62325	1024.39209	2402.84155							-160.60468	879.34229	2531.90405	-245.70462	839.67645	1753.33447	-337.42966	943.71442	2265.61011	-396.80185	932.33820	2074.65088				-186.65390	513.74738	2341.73926	-399.24384	510.11356	2030.28564	-145.76970	142.84973	2338.05078	-189.77179	235.16685	1953.88440	
440	4.390	-146.02869	142.95209	2338.34644	-194.82732	1572.58313	2108.89038							-191.48474	1330.48926	2303.82422	-67.79585	954.29309	2084.88062	-372.65573	1216.57715	2136.35449	-132.17612	1027.16357	2412.83276							-178.76183	883.38501	2541.91650	-240.87950	841.96210	1755.90295	-343.05136	944.35333	2268.39014	-399.36703	933.26129	2076.81885				-188.71216	513.51508	2344.06470	-405.50974	515.52924	2034.03381				-202.58237	228.20523	1970.51111	
441	4.400	-581.58051	753.98590	812.29736	-199.55263	1573.75916	2115.04932							-199.35872	1331.61731	2309.72168	-70.23847	955.87653	2091.08301	-377.70895	1217.76807	2140.20190	-143.37730	1028.92981	2422.21021										-236.30019	843.42999	1759.34692	-348.39603	944.63757	2271.16797	-403.15659	934.54382	2079.03662				-191.26022	513.58600	2346.07471	-410.83649	521.01587	2037.77332	-146.31631	143.28830	2338.55420	-217.12984	223.44334	1984.85938	
442	4.410	-586.29401	759.49304	827.69049	-204.18297	1573.50159	2119.27417							-207.20755	1332.51294	2314.76196	-74.13033	956.80408	2095.73486	-383.04175	1219.38074	2143.51465	-154.15630	1030.30884	2430.07446	-215.03717	890.63611	2560.79980							-232.62537	845.88483	1762.77722	-352.97229	944.50214	2272.43066	-407.11731	935.41302	2081.49927				-193.85226	512.77753	2346.88892	-416.03479	523.41479	2047.09045	-146.60539	143.54309	2338.57153	-230.37544	215.39934	2002.81995	
443	4.420	-591.38403	764.25739	844.24701	-208.69223	1573.26892	2124.65479							-215.17755	1333.54651	2319.78809	-76.82600	957.93268	2101.72827				-166.04158	1032.52832	2439.57080	-232.47316	893.84326	2568.71777							-228.63219	846.74939	1765.96875	-357.67215	944.41431	2275.58276	-409.42432	935.89740	2081.48584				-197.12375	512.40765	2348.73779	-420.16891	525.86432	2050.45947	-146.86703	143.65704	2338.19580	-244.97285	208.48041	2018.88208	
444	4.430				-212.93510	1572.94141	2129.95337							-223.53069	1334.17200	2325.52808	-80.05539	958.35107	2106.24902				-176.91292	1033.94409	2447.15967	-250.33965	896.49152	2575.39575							-225.37485	848.06061	1770.50610	-361.83292	944.16217	2277.63086	-413.52448	936.64923	2084.23706				-200.08839	512.32269	2351.68237	-423.84338	529.01904	2053.44702	-147.78757	144.08807	2338.53491				
